<mxfile host="65bd71144e">
    <diagram id="zZb35UM6TfjcmP_RyCPo" name="Page-1">
        <mxGraphModel dx="832" dy="475" grid="1" gridSize="10" guides="1" tooltips="1" connect="1" arrows="1" fold="1" page="1" pageScale="1" pageWidth="850" pageHeight="1100" math="0" shadow="0">
            <root>
                <mxCell id="0"/>
                <mxCell id="1" parent="0"/>
                <mxCell id="2" value="Social Media" style="text;strokeColor=none;align=center;fillColor=none;html=1;verticalAlign=middle;whiteSpace=wrap;rounded=0;fontSize=31;fontStyle=4" parent="1" vertex="1">
                    <mxGeometry x="321" y="60" width="240" height="70" as="geometry"/>
                </mxCell>
                <mxCell id="3" value="&amp;nbsp; &amp;nbsp;user_ID&amp;nbsp; &amp;nbsp; &amp;nbsp; &amp;nbsp;username&amp;nbsp; &amp;nbsp; password&amp;nbsp; &amp;nbsp;full_Name&amp;nbsp; &amp;nbsp;admin&amp;nbsp; &amp;nbsp; &amp;nbsp;member" style="rounded=1;whiteSpace=wrap;html=1;align=left;" parent="1" vertex="1">
                    <mxGeometry x="261" y="219" width="390" height="50" as="geometry"/>
                </mxCell>
                <mxCell id="4" value="" style="endArrow=none;html=1;" parent="1" edge="1">
                    <mxGeometry width="50" height="50" relative="1" as="geometry">
                        <mxPoint x="327" y="269" as="sourcePoint"/>
                        <mxPoint x="327" y="219" as="targetPoint"/>
                    </mxGeometry>
                </mxCell>
                <mxCell id="5" value="" style="endArrow=none;html=1;" parent="1" edge="1">
                    <mxGeometry width="50" height="50" relative="1" as="geometry">
                        <mxPoint x="400.5" y="269" as="sourcePoint"/>
                        <mxPoint x="400.5" y="219" as="targetPoint"/>
                    </mxGeometry>
                </mxCell>
                <mxCell id="6" value="user" style="text;strokeColor=none;align=center;fillColor=none;html=1;verticalAlign=middle;whiteSpace=wrap;rounded=0;fontSize=18;" parent="1" vertex="1">
                    <mxGeometry x="411" y="180" width="60" height="30" as="geometry"/>
                </mxCell>
                <mxCell id="7" value="post" style="text;strokeColor=none;align=center;fillColor=none;html=1;verticalAlign=middle;whiteSpace=wrap;rounded=0;fontSize=18;" parent="1" vertex="1">
                    <mxGeometry x="386" y="319" width="60" height="30" as="geometry"/>
                </mxCell>
                <mxCell id="12" value="" style="endArrow=none;html=1;" parent="1" edge="1">
                    <mxGeometry width="50" height="50" relative="1" as="geometry">
                        <mxPoint x="261" y="259" as="sourcePoint"/>
                        <mxPoint x="321" y="259" as="targetPoint"/>
                    </mxGeometry>
                </mxCell>
                <mxCell id="17" value="&amp;nbsp; post_ID&amp;nbsp; &amp;nbsp; &amp;nbsp; &amp;nbsp;post_Content&amp;nbsp; &amp;nbsp; &amp;nbsp;post_Name&amp;nbsp; &amp;nbsp; &amp;nbsp;user_ID" style="rounded=1;whiteSpace=wrap;html=1;align=left;" parent="1" vertex="1">
                    <mxGeometry x="261" y="349" width="310" height="50" as="geometry"/>
                </mxCell>
                <mxCell id="18" value="" style="endArrow=none;html=1;" parent="1" edge="1">
                    <mxGeometry width="50" height="50" relative="1" as="geometry">
                        <mxPoint x="326" y="399" as="sourcePoint"/>
                        <mxPoint x="326" y="349" as="targetPoint"/>
                    </mxGeometry>
                </mxCell>
                <mxCell id="19" value="" style="endArrow=none;html=1;" parent="1" edge="1">
                    <mxGeometry width="50" height="50" relative="1" as="geometry">
                        <mxPoint x="421" y="399" as="sourcePoint"/>
                        <mxPoint x="421" y="349" as="targetPoint"/>
                    </mxGeometry>
                </mxCell>
                <mxCell id="20" value="" style="endArrow=none;html=1;" parent="1" edge="1">
                    <mxGeometry width="50" height="50" relative="1" as="geometry">
                        <mxPoint x="261" y="389" as="sourcePoint"/>
                        <mxPoint x="321" y="389" as="targetPoint"/>
                    </mxGeometry>
                </mxCell>
                <mxCell id="21" value="" style="endArrow=none;html=1;" parent="1" edge="1">
                    <mxGeometry width="50" height="50" relative="1" as="geometry">
                        <mxPoint x="461" y="269" as="sourcePoint"/>
                        <mxPoint x="461" y="219" as="targetPoint"/>
                    </mxGeometry>
                </mxCell>
                <mxCell id="22" value="" style="endArrow=none;html=1;" parent="1" edge="1">
                    <mxGeometry width="50" height="50" relative="1" as="geometry">
                        <mxPoint x="521" y="269" as="sourcePoint"/>
                        <mxPoint x="521" y="219" as="targetPoint"/>
                    </mxGeometry>
                </mxCell>
                <mxCell id="23" value="" style="endArrow=none;html=1;" parent="1" edge="1">
                    <mxGeometry width="50" height="50" relative="1" as="geometry">
                        <mxPoint x="566" y="269" as="sourcePoint"/>
                        <mxPoint x="566" y="219" as="targetPoint"/>
                    </mxGeometry>
                </mxCell>
                <mxCell id="30" value="" style="endArrow=classic;html=1;entryX=1;entryY=0.75;entryDx=0;entryDy=0;exitX=0;exitY=0.5;exitDx=0;exitDy=0;" parent="1" target="34" edge="1" source="3">
                    <mxGeometry width="50" height="50" relative="1" as="geometry">
                        <mxPoint x="281" y="269" as="sourcePoint"/>
                        <mxPoint x="591" y="209" as="targetPoint"/>
                        <Array as="points">
                            <mxPoint x="231" y="244"/>
                            <mxPoint x="231" y="319"/>
                            <mxPoint x="681" y="320"/>
                            <mxPoint x="681" y="499"/>
                        </Array>
                    </mxGeometry>
                </mxCell>
                <mxCell id="34" value="comment_ID comment_Content&amp;nbsp; &amp;nbsp; &amp;nbsp; &amp;nbsp; &amp;nbsp; user_ID&amp;nbsp; &amp;nbsp;" style="rounded=1;whiteSpace=wrap;html=1;align=left;" parent="1" vertex="1">
                    <mxGeometry x="261" y="459" width="280" height="50" as="geometry"/>
                </mxCell>
                <mxCell id="35" value="" style="endArrow=none;html=1;" parent="1" edge="1">
                    <mxGeometry width="50" height="50" relative="1" as="geometry">
                        <mxPoint x="331" y="509" as="sourcePoint"/>
                        <mxPoint x="331" y="459" as="targetPoint"/>
                    </mxGeometry>
                </mxCell>
                <mxCell id="36" value="" style="endArrow=none;html=1;" parent="1" edge="1">
                    <mxGeometry width="50" height="50" relative="1" as="geometry">
                        <mxPoint x="431" y="509" as="sourcePoint"/>
                        <mxPoint x="431" y="459" as="targetPoint"/>
                    </mxGeometry>
                </mxCell>
                <mxCell id="37" value="comment" style="text;strokeColor=none;align=center;fillColor=none;html=1;verticalAlign=middle;whiteSpace=wrap;rounded=0;fontSize=18;" parent="1" vertex="1">
                    <mxGeometry x="365" y="429" width="60" height="30" as="geometry"/>
                </mxCell>
                <mxCell id="38" value="" style="endArrow=none;html=1;" parent="1" edge="1">
                    <mxGeometry width="50" height="50" relative="1" as="geometry">
                        <mxPoint x="261" y="499" as="sourcePoint"/>
                        <mxPoint x="321" y="499" as="targetPoint"/>
                    </mxGeometry>
                </mxCell>
                <mxCell id="40" value="" style="endArrow=none;html=1;entryX=0.964;entryY=0.8;entryDx=0;entryDy=0;entryPerimeter=0;" parent="1" edge="1" target="34">
                    <mxGeometry width="50" height="50" relative="1" as="geometry">
                        <mxPoint x="431" y="499" as="sourcePoint"/>
                        <mxPoint x="491" y="499" as="targetPoint"/>
                    </mxGeometry>
                </mxCell>
                <mxCell id="SVVVHmJ14IudD-KFrgfa-40" value="" style="endArrow=classic;html=1;exitX=0;exitY=0.5;exitDx=0;exitDy=0;" parent="1" source="17" edge="1">
                    <mxGeometry width="50" height="50" relative="1" as="geometry">
                        <mxPoint x="541" y="359" as="sourcePoint"/>
                        <mxPoint x="251" y="499" as="targetPoint"/>
                        <Array as="points">
                            <mxPoint x="171" y="374"/>
                            <mxPoint x="171" y="499"/>
                        </Array>
                    </mxGeometry>
                </mxCell>
                <mxCell id="L7g7F61yaOVJD1ijdKgr-40" value="" style="endArrow=none;html=1;" parent="1" edge="1">
                    <mxGeometry width="50" height="50" relative="1" as="geometry">
                        <mxPoint x="491" y="399" as="sourcePoint"/>
                        <mxPoint x="491" y="349" as="targetPoint"/>
                    </mxGeometry>
                </mxCell>
                <mxCell id="L7g7F61yaOVJD1ijdKgr-41" value="" style="endArrow=classic;html=1;exitX=0.095;exitY=1.04;exitDx=0;exitDy=0;exitPerimeter=0;entryX=0.872;entryY=-0.072;entryDx=0;entryDy=0;entryPerimeter=0;" parent="1" source="3" target="17" edge="1">
                    <mxGeometry width="50" height="50" relative="1" as="geometry">
                        <mxPoint x="541" y="359" as="sourcePoint"/>
                        <mxPoint x="591" y="309" as="targetPoint"/>
                        <Array as="points">
                            <mxPoint x="298" y="299"/>
                            <mxPoint x="531" y="299"/>
                        </Array>
                    </mxGeometry>
                </mxCell>
                <mxCell id="42" value="" style="endArrow=none;html=1;" edge="1" parent="1">
                    <mxGeometry width="50" height="50" relative="1" as="geometry">
                        <mxPoint x="490" y="390" as="sourcePoint"/>
                        <mxPoint x="570" y="390" as="targetPoint"/>
                    </mxGeometry>
                </mxCell>
            </root>
        </mxGraphModel>
    </diagram>
</mxfile>